#!OML:ASF G:\JayActor3\Patient Classification 1\Patient 1\Session 2\male.ASF
:FULLY-SPECIFIED
:DEGREES
2078
root 44.387 15.1794 -8.36457 355.311 -66.6392 -1069.17
lowerback 15.6544 -0.88895 -2.91772
upperback 9.37812 -1.94604 0.650753
thorax 1.30119 -1.28693 2.59458
lowerneck 3.69114 -7.79384 -6.52735
upperneck -17.613 -9.08017 17.277
head -4.63397 -5.45655 6.93837
rclavicle 3.95581e-014 7.55382e-015
rhumerus -13.7394 6.59426 -69.8594
rradius 77.2088
rwrist 5.80617
rhand -44.2631 18.734
rfingers 7.12502
rthumb -17.0744 -10.5356
lclavicle 3.95581e-014 7.55382e-015
lhumerus -3.4082 -19.2567 67.1056
lradius 83.2971
lwrist 17.0818
lhand -34.8101 19.3164
lfingers 7.12502
lthumb -7.96151 49.1465
rfemur -44.6884 -4.85432 23.2556
rtibia 66.8392
rfoot -28.5298 -6.95197
rtoes 20.4909
lfemur -24.2469 18.7187 -12.9224
ltibia 74.2111
lfoot -2.74496 25.387
ltoes 11.8026
2079
root 44.3437 15.1807 -8.3749 355.176 -66.7263 -1069.13
lowerback 15.7785 -0.875697 -2.87468
upperback 9.40619 -1.93055 0.643747
thorax 1.26334 -1.27869 2.56422
lowerneck 3.67158 -7.78827 -6.52187
upperneck -17.5166 -9.07925 17.2664
head -4.60254 -5.45119 6.92729
rclavicle -1.96797e-014 -4.77083e-015
rhumerus -13.7402 6.5362 -69.8422
rradius 77.172
rwrist 5.98615
rhand -44.2761 18.7688
rfingers 7.12502
rthumb -17.087 -10.4997
lclavicle -1.96797e-014 -4.77083e-015
lhumerus -3.50948 -19.1425 66.9949
lradius 83.3066
lwrist 17.0992
lhand -34.8401 19.3588
lfingers 7.12502
lthumb -7.9904 49.1877
rfemur -44.3894 -4.56788 23.3229
rtibia 66.8192
rfoot -28.6873 -7.12054
rtoes 20.4897
lfemur -25.1017 18.125 -12.7404
ltibia 75.215
lfoot -2.15577 23.7607
ltoes 9.87008
2080
root 44.3011 15.1816 -8.38472 355.031 -66.7993 -1069.09
lowerback 15.908 -0.866283 -2.8263
upperback 9.43579 -1.91957 0.633613
thorax 1.22434 -1.27246 2.52828
lowerneck 3.66783 -7.78335 -6.51451
upperneck -17.4297 -9.07824 17.2587
head -4.57669 -5.44689 6.91831
rclavicle 2.38542e-015 1.74931e-014
rhumerus -13.7409 6.48118 -69.8272
rradius 77.1075
rwrist 6.25667
rhand -44.3222 18.7167
rfingers 7.12502
rthumb -17.1314 -10.5481
lclavicle 2.38542e-015 1.74931e-014
lhumerus -3.59729 -19.0331 66.8851
lradius 83.3048
lwrist 17.1148
lhand -34.8633 19.3906
lfingers 7.12502
lthumb -8.01286 49.2188
rfemur -44.0895 -4.32212 23.3884
rtibia 66.8071
rfoot -28.8248 -7.28526
rtoes 20.3854
lfemur -25.9852 17.565 -12.6003
ltibia 76.1786
lfoot -1.91528 22.4449
ltoes 7.8128
2081
root 44.2594 15.1818 -8.39398 354.887 -66.8603 -1069.06
lowerback 16.0409 -0.861649 -2.77172
upperback 9.46826 -1.91419 0.624316
thorax 1.18695 -1.26895 2.49052
lowerneck 3.67548 -7.78006 -6.51058
upperneck -17.3559 -9.07862 17.2547
head -4.55623 -5.44418 6.91249
rclavicle 2.84262e-014 1.19271e-015
rhumerus -13.7374 6.4246 -69.8103
rradius 77.0476
rwrist 6.50372
rhand -44.3808 18.6634
rfingers 7.12502
rthumb -17.1878 -10.5964
lclavicle 2.84262e-014 1.19271e-015
lhumerus -3.67375 -18.9176 66.7822
lradius 83.2919
lwrist 17.1251
lhand -34.866 19.4038
lfingers 7.12502
lthumb -8.01545 49.2318
rfemur -43.7932 -4.12392 23.4589
rtibia 66.8036
rfoot -28.9486 -7.43445
rtoes 20.2359
lfemur -26.9009 17.0355 -12.5039
ltibia 77.1086
lfoot -1.96985 21.4997
ltoes 5.91479
2082
root 44.2186 15.181 -8.40261 354.759 -66.9107 -1069.05
lowerback 16.1759 -0.861583 -2.70595
upperback 9.50214 -1.91329 0.617822
thorax 1.15002 -1.26738 2.45005
lowerneck 3.69739 -7.77797 -6.51339
upperneck -17.2958 -9.07987 17.2558
head -4.54154 -5.44278 6.91101
rclavicle -2.56432e-014 2.54444e-014
rhumerus -13.7329 6.36097 -69.7928
rradius 76.9978
rwrist 6.70252
rhand -44.4324 18.6274
rfingers 7.12502
rthumb -17.2374 -10.6281
lclavicle -2.56432e-014 2.54444e-014
lhumerus -3.74277 -18.7966 66.6899
lradius 83.2688
lwrist 17.1267
lhand -34.8432 19.3992
lfingers 7.12502
lthumb -7.99344 49.2281
rfemur -43.5043 -3.97673 23.5412
rtibia 66.81
rfoot -29.0864 -7.5391
rtoes 20.1872
lfemur -27.8496 16.513 -12.4507
ltibia 78.0073
lfoot -2.2794 20.8948
ltoes 4.24385
